<svg xmlns="http://www.w3.org/2000/svg" viewBox="0 0 512 512">
  <defs>
    <linearGradient id="bg" x1="0%" y1="0%" x2="100%" y2="100%">
      <stop offset="0%" stop-color="#1c1c2e"/>
      <stop offset="100%" stop-color="#08080f"/>
    </linearGradient>
  </defs>

  <!-- Background -->
  <rect width="512" height="512" rx="112" fill="url(#bg)"/>
  <path d="M 0 256
           L 38 256
           C 42 256 44 218 48 212 C 52 206 54 256 58 256
           L 72 256
           C 76 256 78 292 82 302 C 86 312 90 262 94 256
           L 110 256
           C 114 256 117 150 124 138 C 131 126 134 234 138 256
           L 154 256
           C 158 256 160 196 164 188 C 168 180 172 252 176 256
           L 192 256
           C 196 256 199 330 206 344 C 213 358 218 270 222 256
           L 240 256
           C 244 256 247 136 254 122 C 261 108 266 230 270 256
           L 286 256
           C 290 256 292 298 296 308 C 300 318 304 262 308 256
           L 326 256
           C 330 256 333 148 340 134 C 347 120 352 238 356 256
           L 372 256
           C 376 256 378 310 382 320 C 386 330 390 264 394 256
           L 410 256
           C 414 256 416 208 420 200 C 424 192 428 252 432 256
           L 450 256
           C 454 256 456 278 460 284 C 464 290 468 258 472 256
           L 512 256"
        fill="none" stroke="#6E6E6E" stroke-width="10"
        stroke-linecap="round" stroke-linejoin="round"/>

  <!-- Mic capsule -->
  <rect x="206" y="90" width="100" height="190" rx="50" fill="white"/>

  <!-- Mic stand -->
  <path d="M 154 254 C 154 368 358 368 358 254"
        fill="none" stroke="white" stroke-width="30" stroke-linecap="round"/>

  <!-- Pole -->
  <rect x="241" y="330" width="30" height="90" rx="15" fill="white"/>

  <!-- Base -->
  <rect x="172" y="408" width="168" height="32" rx="16" fill="white"/>

</svg>
